# xmcd CD database file
#
# Track frame offsets:
#	150
#	23256
#	44750
#	60919
#	73631
#	88323
#	105542
#	123459
#	149229
#	172563
#
# Disc length: 2611 seconds
#
# Revision: 0
# Processed by: cddbd v1.5.1PL0 Copyright (c) Steve Scherf et al.
# Submitted via: CDex 1.51
#
DISCID=840a310a
DTITLE=Various Artist - Top 20 Merengue De Enero 2005 CD 1
DYEAR=2005
DGENRE=Merengue
TTITLE0=Toño Rosario - Resistiré
TTITLE1=Julian - La Cavana
TTITLE2=Amarfis - To La Mujeres Rapan
TTITLE3=Ricky Castro - La Popola
TTITLE4=Tulile  - Te Botó La Tipa
TTITLE5=Los Toros Band - Te Quiero
TTITLE6=Mala Fe - Yo Tu Maestro
TTITLE7=Toño Rosario  - Ay Hombe
TTITLE8=July July Y Amarfis - Donde Tan
TTITLE9=Toño Rosario - Eres
EXTD=YEAR: 2005
EXTT0=
EXTT1=
EXTT2=
EXTT3=
EXTT4=
EXTT5=
EXTT6=
EXTT7=
EXTT8=
EXTT9=
PLAYORDER=
